<?xml version="1.0" ?><!DOCTYPE svg  PUBLIC '-//W3C//DTD SVG 1.1//EN'  'http://www.w3.org/Graphics/SVG/1.1/DTD/svg11.dtd'><svg enable-background="new 0 0 512 512" height="512px" id="Layer_1" version="1.1" viewBox="0 0 512 512" width="512px" xml:space="preserve" xmlns="http://www.w3.org/2000/svg" xmlns:xlink="http://www.w3.org/1999/xlink"><g><path d="M511.588,429.442l-18.734-78.351c-1.383-5.809-6.074-10.25-11.957-11.309l-22.19-4.045l-22.089-206.51    c-0.367-3.485-1.94-6.735-4.455-9.176l-37.648-36.705c-5.382-5.25-13.809-5.707-19.721-1.133l-39.272,30.342l0.316-18.106    l21.971-54.425c1.809-4.456,1.368-9.5-1.146-13.573L344.705,7.143c-3.515-5.677-10.383-8.397-16.81-6.588L190.889,38.259    c-4.728,1.294-8.522,4.809-10.177,9.427l-15.867,44.132c-1.191,3.309-1.184,6.94,0.021,10.25l26.464,72.542l-9.112,54.239    l-30.365-23.239l11.088-67.63c0.705-4.323-0.5-8.75-3.316-12.118l-50.838-60.689c-3.266-3.882-8.295-5.882-13.316-5.28    c-5.052,0.604-9.456,3.707-11.713,8.25L22.278,191.888c-1.169,2.354-1.698,4.97-1.544,7.588l7.478,127.587l-11.228,7.631    c-0.161,0.109-0.304,0.238-0.46,0.354c-0.278,0.205-0.559,0.409-0.819,0.63c-0.154,0.131-0.293,0.273-0.441,0.41    c-0.256,0.236-0.511,0.473-0.748,0.724c-0.133,0.141-0.255,0.289-0.382,0.434c-0.23,0.264-0.455,0.53-0.665,0.807    c-0.118,0.155-0.229,0.314-0.34,0.474c-0.196,0.28-0.382,0.564-0.558,0.855c-0.104,0.172-0.204,0.345-0.301,0.521    c-0.161,0.293-0.308,0.591-0.449,0.893c-0.086,0.185-0.174,0.366-0.253,0.555c-0.134,0.321-0.249,0.648-0.36,0.978    c-0.059,0.174-0.127,0.344-0.18,0.521c-0.148,0.496-0.272,0.999-0.369,1.507c-0.022,0.117-0.031,0.237-0.05,0.355    c-0.068,0.415-0.125,0.831-0.158,1.251c-0.004,0.049-0.015,0.097-0.019,0.146L0.036,495.897    c-0.287,4.162,1.161,8.265,4.015,11.323C6.896,510.265,10.881,512,15.057,512h205.575h86.44h189.869    c8.323,0,15.059-6.735,15.059-15.059v-63.999C512,431.766,511.867,430.59,511.588,429.442z M31.197,481.882l8.772-126.388    l58.847-39.976c6.875-4.676,8.669-14.044,3.992-20.912c-4.676-6.882-14.015-8.69-20.919-4l-24.663,16.755l-6.198-105.649    l49.457-99.542l31.618,37.75l-10.376,63.263l-39.728,26.485c-6.919,4.618-8.787,13.956-4.177,20.881    c2.905,4.354,7.677,6.706,12.544,6.706c2.868,0,5.772-0.823,8.339-2.529l36.22-24.146l41.647,31.867l-12.411,73.88    c-0.354,2.118-0.25,4.266,0.286,6.339l36.644,139.217H31.197z M294.566,481.882h-62.322l-37.841-143.761l13.375-79.616    c0.001-0.006,0.001-0.012,0.002-0.018l13.91-82.804c0.426-2.574,0.184-5.206-0.706-7.662l-25.957-71.161l11.383-31.646    l118.617-32.632l2,3.235l-20.162,49.925c-0.69,1.721-1.073,3.545-1.103,5.383l-0.908,52.212c0,0.012-0.003,0.024-0.003,0.037    l-1.056,60.76l-25.856-17.923c-6.868-4.75-16.221-3.029-20.956,3.809c-4.735,6.824-3.029,16.206,3.808,20.956l48.895,33.892    c0.036,0.025,0.069,0.053,0.105,0.078l25.794,17.882L294.566,481.882z M481.883,481.882H325.22l41.779-223.112    c0.069-0.369,0.123-0.739,0.164-1.108c0.003-0.021,0.003-0.043,0.005-0.064c0.045-0.426,0.067-0.851,0.076-1.274    c0.002-0.101,0.001-0.2,0.001-0.301c0-0.375-0.014-0.748-0.041-1.12c-0.006-0.075-0.009-0.15-0.016-0.225    c-0.081-0.902-0.243-1.791-0.482-2.658c-0.022-0.084-0.049-0.167-0.073-0.251c-0.105-0.358-0.224-0.711-0.354-1.061    c-0.031-0.082-0.059-0.164-0.091-0.245c-0.164-0.412-0.342-0.818-0.541-1.215c-0.027-0.055-0.06-0.107-0.088-0.161    c-0.172-0.333-0.357-0.659-0.555-0.978c-0.07-0.115-0.143-0.228-0.217-0.34c-0.188-0.288-0.387-0.569-0.595-0.844    c-0.062-0.082-0.119-0.166-0.183-0.247c-0.271-0.345-0.561-0.677-0.863-0.999c-0.071-0.075-0.146-0.146-0.219-0.22    c-0.254-0.258-0.518-0.507-0.791-0.748c-0.09-0.08-0.18-0.159-0.272-0.237c-0.353-0.296-0.717-0.583-1.101-0.849l-27.206-18.859    l1.288-73.633l48.007-37.094l24.396,23.792l20.561,192.242l-32.928-6.054c-8.162-1.573-16.029,3.911-17.529,12.087    c-1.5,8.178,3.911,16.029,12.088,17.529l76.405,14.049l16.037,67.038V481.882z" fill="#414042"/></g></svg>