<?xml version="1.0" ?><svg clip-rule="evenodd" fill-rule="evenodd" image-rendering="optimizeQuality" shape-rendering="geometricPrecision" text-rendering="geometricPrecision" viewBox="0 0 500 500" xmlns="http://www.w3.org/2000/svg"><defs><linearGradient gradientUnits="userSpaceOnUse" id="a" x1="185.77" x2="430.904" y1="210.669" y2="210.669"><stop offset="0" stop-color="#FCFCFD"/><stop offset="1" stop-color="#fff"/></linearGradient><linearGradient gradientUnits="userSpaceOnUse" id="b" x1="430.904" x2="185.77" y1="289.332" y2="289.332"><stop offset="0" stop-color="#FCFCFD"/><stop offset="1" stop-color="#fff"/></linearGradient><linearGradient gradientUnits="userSpaceOnUse" id="c" x1="19.25" x2="190.746" y1="249.999" y2="249.999"><stop offset="0" stop-color="#008BFF"/><stop offset="1" stop-color="#0af"/></linearGradient></defs><g><path d="M182 302l288-172c-17-19-54-9-121 12-48 14-124 51-202 129l35 31z" fill="url(#a)" stroke="#434242" stroke-linejoin="round" stroke-width="10"/><path d="M182 198l288 172c-17 19-54 9-121-11-48-15-124-52-202-130l35-31z" fill="url(#b)" stroke="#434242" stroke-linejoin="round" stroke-width="10"/><path d="M164 188l18 10-35 31-1-1c-13-22-40-32-62-45l-20-11c-32-19-43-60-25-91 19-32 60-43 91-25l31 18c32 18 43 59 24 91-5 10-12 16-21 23zm-40-110l22 13c22 13 31 41 19 62s-41 28-64 15l-22-13c-23-13-31-41-19-63 12-21 41-27 64-14zm40 234l18-10-35-31-1 1c-13 22-40 32-62 45l-20 11c-32 19-43 60-25 91 19 32 60 43 91 25l31-18c32-18 43-59 24-91-5-10-12-16-21-23zm-40 110l22-13c22-13 31-41 19-62s-41-28-64-15l-22 13c-23 13-31 41-19 63 12 21 41 27 64 14z" fill="url(#c)" stroke="#434242" stroke-linejoin="round" stroke-width="10"/><circle fill="#434242" r="13" transform="matrix(0 -1.2 1.2 0 209.999 249.999)"/></g></svg>